<svg width="50" height="50" viewBox="0 0 50 50" fill="none" xmlns="http://www.w3.org/2000/svg">
<rect width="50" height="50" fill="#2D4756"/>
<path d="M12.5625 30V21.2727H16.3295C16.9773 21.2727 17.544 21.4006 18.0298 21.6562C18.5156 21.9119 18.8935 22.2713 19.1634 22.7344C19.4332 23.1974 19.5682 23.7386 19.5682 24.358C19.5682 24.983 19.429 25.5241 19.1506 25.9815C18.875 26.4389 18.4872 26.7912 17.9872 27.0384C17.4901 27.2855 16.9091 27.4091 16.2443 27.4091H13.9943V25.5682H15.767C16.0455 25.5682 16.2827 25.5199 16.4787 25.4233C16.6776 25.3239 16.8295 25.1832 16.9347 25.0014C17.0426 24.8196 17.0966 24.6051 17.0966 24.358C17.0966 24.108 17.0426 23.8949 16.9347 23.7188C16.8295 23.5398 16.6776 23.4034 16.4787 23.3097C16.2827 23.2131 16.0455 23.1648 15.767 23.1648H14.9318V30H12.5625ZM20.4375 30V21.2727H22.8068V24.6818H25.9432V21.2727H28.3125V30H25.9432V26.5909H22.8068V30H20.4375ZM29.4375 30V21.2727H33.2045C33.8523 21.2727 34.419 21.4006 34.9048 21.6562C35.3906 21.9119 35.7685 22.2713 36.0384 22.7344C36.3082 23.1974 36.4432 23.7386 36.4432 24.358C36.4432 24.983 36.304 25.5241 36.0256 25.9815C35.75 26.4389 35.3622 26.7912 34.8622 27.0384C34.3651 27.2855 33.7841 27.4091 33.1193 27.4091H30.8693V25.5682H32.642C32.9205 25.5682 33.1577 25.5199 33.3537 25.4233C33.5526 25.3239 33.7045 25.1832 33.8097 25.0014C33.9176 24.8196 33.9716 24.6051 33.9716 24.358C33.9716 24.108 33.9176 23.8949 33.8097 23.7188C33.7045 23.5398 33.5526 23.4034 33.3537 23.3097C33.1577 23.2131 32.9205 23.1648 32.642 23.1648H31.8068V30H29.4375Z" fill="white"/>
</svg>
